<svg xmlns="http://www.w3.org/2000/svg" viewBox="0 0 488.4 488.4" width="512" height="512"><g fill="#FFF"><path d="M477.3 299.65c-14.8-9.7-22.9-23.4-27.4-35.4 24.1-26.1 38.5-59.3 38.5-95.5 0-83.9-77.6-151.9-173.3-151.9-85.3 0-156.1 54-170.5 125.2 8.3-1 16.7-1.5 25.2-1.5 107.1 0 194.7 76.8 199 172.6 14.4-4.1 27.9-9.8 40.4-16.9 24.4 14.6 50.8 14.1 66.2 12 4.4-.5 5.6-6.2 1.9-8.6z"/><path d="M169.8 170.05C76.2 170.05 0 237.65 0 320.75c0 31.6 11.3 62.5 31.9 88-3.8 7-9 12.6-15.3 16.8-6.7 4.4-9.9 12.3-8.2 20.1 1.7 7.7 8 13.5 15.9 14.6 5.4.8 11 1.1 16.5 1.1 16.3 0 31.4-3.3 44.8-9.7 25.6 13 54.6 19.9 84.2 19.9 93.6 0 169.8-67.6 169.8-150.7s-76.2-150.8-169.8-150.8zm0 271.9c-27.4 0-54.1-6.9-77-19.9l-7.5-4.3-7.4 4.4c-7.6 4.5-16.1 7.5-25.4 8.8 4.3-5.9 7.8-12.6 10.4-19.8l3.1-8.5-6.1-6.6c-20-21.7-30.6-47.8-30.6-75.5 0-66.9 63-121.2 140.4-121.2s140.5 54.5 140.5 121.4-63 121.2-140.4 121.2z"/><path d="M174.6 287.35c10.2.1 18.6-8.4 18.7-18.8.1-10.5-8.2-19-18.6-19.1-10.4 0-18.9 8.3-19 18.8 0 10.4 8.4 19 18.9 19.1zM197.1 372.65c-1.8.7-3.5 2-5.3 2.7-2.3.9-4.6 1.7-7 2-2.9.3-5-1.2-5.7-4-.5-2.1-.8-4.4-.6-6.5.5-4.5 1.4-8.9 2.2-13.4 2.4-13.4 5-26.8 7.3-40.3.6-3.6 1.3-7.3 1.2-11-.1-4.4-2.7-6.5-7.1-6.5h-35.6c-1.4 0-2.9.1-4.3.3-2.7.5-4 1.8-4.2 3.9-.2 1.9.8 3.8 3.3 4.7 2 .7 4.1.9 6.2 1.2 4.8.7 6.4 2.4 6.4 7.3 0 .8-.1 1.5-.2 2.3-2 11.8-4.2 23.5-6.2 35.3-1.1 6.8-2.2 13.5-3.1 20.3-1.4 9.9 8.2 19.3 15.7 20.3 4.5.6 9.1.8 13.7.7 9.8-.1 18-4.3 24.9-11.2 1.2-1.2 2.2-2.9 2.6-4.5.8-2.8-1.4-4.7-4.2-3.6z"/></g></svg>