<svg xmlns="http://www.w3.org/2000/svg" width="512" height="512" viewBox="0 0 612 612"><path d="M226.764 375.35c-28.249 0-51.078 22.91-51.078 51.16 0 28.166 22.829 51.078 51.078 51.078s51.078-22.912 51.078-51.078c-.001-28.25-22.829-51.16-51.078-51.16zm0 76.699c-14.125 0-25.54-11.498-25.54-25.541 0-14.123 11.415-25.539 25.54-25.539 14.124 0 25.539 11.416 25.539 25.539-.001 14.043-11.415 25.541-25.539 25.541zM612 337.561v54.541c0 13.605-11.029 24.635-24.636 24.635h-26.36c-4.763-32.684-32.929-57.812-66.927-57.812-33.914 0-62.082 25.129-66.845 57.812H293.625c-4.763-32.684-32.93-57.812-66.845-57.812s-62.082 25.129-66.844 57.812h-33.012c-13.606 0-24.635-11.029-24.635-24.635v-54.541H612zM494.143 375.35c-28.249 0-51.16 22.91-51.16 51.16 0 28.166 22.912 51.078 51.16 51.078 28.166 0 51.077-22.912 51.077-51.078 0-28.25-22.911-51.16-51.077-51.16zm0 76.699c-14.125 0-25.539-11.498-25.539-25.541 0-14.123 11.414-25.539 25.539-25.539 14.042 0 25.539 11.416 25.539 25.539 0 14.043-11.497 25.541-25.539 25.541zm108.15-169.412l-96.817-95.751c-6.159-6.077-14.453-9.526-23.076-9.526h-48.86v-18.313c0-13.631-11.004-24.635-24.635-24.635H126.907c-13.55 0-24.635 11.005-24.635 24.635v3.86L2.3 174.429l177.146 23.068L0 215.323l178.814 25.423L0 256.25l102.278 19.29-.007 48.403h509.712v-17.985c0-8.787-3.531-17.162-9.69-23.321zm-42.209 3.202h-93.697a3.855 3.855 0 0 1-3.86-3.859v-72.347a3.856 3.856 0 0 1 3.86-3.86h17.82c.985 0 1.971.411 2.71 1.068l75.796 72.347c2.544 2.381.819 6.651-2.629 6.651z" fill="#FFF"/></svg>