<svg xmlns="http://www.w3.org/2000/svg" width="516.375" height="516.375" viewBox="0 0 516.375 516.375"><circle cx="210.375" cy="325.125" r="19.125"/><path d="M325.125 0H114.75C93.712 0 76.5 17.212 76.5 38.25v439.875c0 21.037 17.212 38.25 38.25 38.25h286.875c21.037 0 38.25-17.213 38.25-38.25V133.876L325.125 0zm0 28.688l89.888 105.188H344.25c-9.562 0-19.125-9.562-19.125-19.125V28.688zm95.625 449.437c0 9.562-7.65 19.125-19.125 19.125H114.75c-9.562 0-19.125-7.65-19.125-19.125V38.25c0-9.562 7.65-19.125 19.125-19.125H306v95.625c0 21.038 17.213 38.25 38.25 38.25h76.5v325.125z"/><path d="M133.875 459H382.5V267.75H133.875V459zM153 286.875h210.375v114.75L298.35 344.25l-68.85 61.2-28.688-22.95L153 420.75V286.875z"/></svg>