<svg xmlns="http://www.w3.org/2000/svg" viewBox="0 0 314.652 314.652"><path d="M157.326 0C70.576 0 0 70.576 0 157.326s70.576 157.326 157.326 157.326 157.326-70.576 157.326-157.326S244.076 0 157.326 0zm0 296.652C80.502 296.652 18 234.15 18 157.326S80.502 18 157.326 18s139.326 62.502 139.326 139.326-62.502 139.326-139.326 139.326z"/><path d="M214.618 80.326H100.034c-10.477 0-19 8.523-19 19v116c0 10.477 8.523 19 19 19h114.584c10.477 0 19-8.523 19-19v-116c0-10.476-8.523-19-19-19zm1 135a1 1 0 0 1-1 1H100.034a1 1 0 0 1-1-1v-116a1 1 0 0 1 1-1h114.584a1 1 0 0 1 1 1v116z"/><path d="M183.583 111.812h20.615v18.911h-20.615z"/><circle cx="157.326" cy="164.946" r="20.324"/><path d="M189.745 164.856c0 17.904-14.514 32.418-32.418 32.418s-32.418-14.514-32.418-32.418l.044-14.445h-14.497v53.761h93.743v-53.761H189.82l-.075 14.445z"/></svg>