<svg xmlns="http://www.w3.org/2000/svg" viewBox="0 0 423.755 423.755"><path d="M43.841 281.457c-18.585-44.869-18.586-94.29 0-139.159 15.615-37.697 42.78-68.384 77.674-88.255v75.005h30V15.053H37.519v30h43.755c-73 57.164-102.324 158.139-65.15 247.885 14.167 34.202 37.07 64.159 66.234 86.634 28.274 21.789 61.873 36.201 97.162 41.677l4.601-29.646c-63.343-9.829-115.783-51.005-140.28-110.146zM407.517 292.938c21.651-52.272 21.651-109.848 0-162.12-14.167-34.202-37.07-64.159-66.234-86.633-28.275-21.79-61.874-36.202-97.163-41.678l-4.6 29.646c63.342 9.829 115.782 51.005 140.279 110.146 18.585 44.869 18.585 94.29 0 139.159-15.614 37.697-42.78 68.384-77.673 88.255v-75.005h-30v113.995h113.995v-30h-43.625c28.453-22.217 50.831-51.508 65.021-85.765z"/></svg>