<svg viewBox="0 0 512 512" xmlns="http://www.w3.org/2000/svg"><path d="M258.8 507.2C120.4 507.8 6.6 392.6 9.9 251.9 13 118 123.9 7.2 262 8.7 398.7 10.2 511.8 124 508.1 264.8c-3.5 133.5-113.5 243.1-249.3 242.4zm-218.6-249C41.3 383.3 142.4 479.5 261.8 478c116.3-1.5 215.7-96 215.8-219.9.1-125.2-101.9-221.7-221.7-220.1-116.3 1.6-214.8 96.3-215.7 220.2z"/><path d="M257.7 360.3c-33.8-1.1-67.6-2.1-101.4-3.5-7.2-.3-14.6-1.7-21.5-3.8-16.4-5-23.6-18.1-25.8-33.7-2.5-17.6-4.2-35.4-4.4-53.2-.2-23.9 1.3-47.9 2.6-71.9.6-10.3 3.3-20.5 9-29.3 8.1-12.7 20.8-17 35-17.8 65.9-3.8 131.9-4 197.8-.8 7.3.4 14.6.9 21.9 1.7 16.4 2 28.3 10.6 32.8 26.6 3.3 11.9 5.6 24.4 6 36.8.9 26.9.7 53.9.1 80.9-.3 11.2-2.2 22.5-4.9 33.5-4.5 18.6-17.3 28.8-36.3 30.4-16.3 1.3-32.6 2.2-48.9 2.5-20.6.4-41.3.1-62 .1v1.5zm51.1-111.6c-28-14.6-55.1-28.7-82.5-43v85.8c27.6-14.3 54.7-28.3 82.5-42.8z"/></svg>